<svg width="124" height="22" viewBox="0 0 124 22" fill="none" xmlns="http://www.w3.org/2000/svg">
<path d="M8.3 16.2C12.7 16.2 15.9 12.7 15.9 8.5C15.9 4.24 12.7 0.799999 8.3 0.799999C3.9 0.799999 0.7 4.24 0.7 8.5C0.7 12.7 3.9 16.2 8.3 16.2ZM8.3 1.74C12.1 1.74 14.86 4.8 14.86 8.5C14.86 12.22 12.1 15.26 8.3 15.26C4.5 15.26 1.74 12.22 1.74 8.5C1.74 4.8 4.5 1.74 8.3 1.74ZM10.68 7.68H12.36C12.12 5.66 10.4 4.3 8.3 4.3C5.96 4.3 4.2 6.04 4.2 8.5C4.2 10.96 5.96 12.7 8.3 12.7C10.46 12.7 12.2 11.26 12.38 9.14H10.72C10.56 10.4 9.54 11.2 8.3 11.2C6.88 11.2 5.8 10.12 5.8 8.5C5.8 6.88 6.88 5.8 8.3 5.8C9.46 5.8 10.46 6.54 10.68 7.68ZM22.2109 4.48C22.2109 6.48 23.3109 7.66 24.6709 8.6L26.2509 9.7C27.2709 10.4 28.0309 11.2 28.0309 12.44C28.0309 13.64 27.2509 14.36 26.0109 14.36C24.7909 14.36 23.9909 13.48 23.9909 12.06V11.08H21.9909V12.2C21.9909 14.78 23.7909 16.2 26.0109 16.2C28.2309 16.2 30.0309 14.88 30.0309 12.2C30.0309 10.26 28.9309 9.12 27.5909 8.18L25.9709 7.02C24.9909 6.36 24.2109 5.66 24.2109 4.48C24.2109 3.28 24.9309 2.64 25.9909 2.64C27.1109 2.64 27.8109 3.32 27.8109 4.86V5.72H29.8109V4.8C29.8109 2.1 28.1309 0.799999 25.9909 0.799999C23.9109 0.799999 22.2109 1.86 22.2109 4.48ZM34.248 0.999999H32.248V16H34.248V10.74L39.028 16H41.568L36.508 10.56L41.208 6H38.548L34.248 10.44V0.999999ZM47.5959 17.12L51.5359 6H49.5359L46.6559 14.38L43.7559 6H41.7559L45.7159 17.1C45.0759 18.66 44.3959 19.4 43.1359 19.4C42.6559 19.4 42.1959 19.3 41.8159 19.18V20.94C42.1959 21.06 42.7559 21.16 43.3159 21.16C45.7759 21.16 46.7559 19.5 47.5959 17.12ZM55.0855 21V14.5C55.8655 15.56 57.0255 16.2 58.3655 16.2C61.1055 16.2 63.1655 14.06 63.1655 11C63.1655 7.94 61.1055 5.8 58.3655 5.8C57.0255 5.8 55.8655 6.44 55.0855 7.5V6H53.0855V21H55.0855ZM58.1255 14.36C56.3855 14.36 55.0855 13.02 55.0855 11C55.0855 8.98 56.3855 7.64 58.1255 7.64C59.8655 7.64 61.1655 8.98 61.1655 11C61.1655 13.02 59.8655 14.36 58.1255 14.36ZM67.3402 6H65.3402V16H67.3402V10.98C67.3402 8.92 68.4602 7.88 70.3802 7.88C70.7802 7.88 71.1402 7.94 71.4402 8.04V5.86C71.2802 5.82 71.0402 5.8 70.8002 5.8C69.2802 5.8 68.0602 6.5 67.3402 7.8V6ZM77.4031 16.2C80.3031 16.2 82.4631 14.06 82.4631 11C82.4631 7.94 80.3031 5.8 77.4031 5.8C74.5031 5.8 72.3431 7.94 72.3431 11C72.3431 14.06 74.5031 16.2 77.4031 16.2ZM77.4031 14.36C75.6631 14.36 74.3431 13.02 74.3431 11C74.3431 8.98 75.6631 7.64 77.4031 7.64C79.1431 7.64 80.4631 8.98 80.4631 11C80.4631 13.02 79.1431 14.36 77.4031 14.36ZM96.5941 4.98C96.5941 2.22 94.8741 0.799999 92.7541 0.799999C90.5941 0.799999 88.8741 2.2 88.8741 5V6.32H90.8741V5.16C90.8741 3.28 91.6341 2.64 92.7541 2.64C93.8141 2.64 94.5941 3.32 94.5941 4.98C94.5941 8.64 88.7541 10.24 88.7541 15V16H96.7941V14.16H90.9141C91.4341 10.9 96.5941 9.12 96.5941 4.98ZM103.086 16.2C105.726 16.2 107.306 14.58 107.306 11.28V5.72C107.306 2.44 105.726 0.799999 103.086 0.799999C100.466 0.799999 98.8659 2.44 98.8659 5.72V11.28C98.8659 14.58 100.466 16.2 103.086 16.2ZM103.086 14.36C101.686 14.36 100.866 13.54 100.866 11.28V5.72C100.866 3.48 101.706 2.64 103.086 2.64C104.466 2.64 105.306 3.48 105.306 5.72V11.28C105.306 13.54 104.466 14.36 103.086 14.36ZM117.412 4.98C117.412 2.22 115.692 0.799999 113.572 0.799999C111.412 0.799999 109.692 2.2 109.692 5V6.32H111.692V5.16C111.692 3.28 112.452 2.64 113.572 2.64C114.632 2.64 115.412 3.32 115.412 4.98C115.412 8.64 109.572 10.24 109.572 15V16H117.612V14.16H111.732C112.252 10.9 117.412 9.12 117.412 4.98ZM121.124 1.68C121.124 3.18 120.584 3.8 119.284 3.8H118.804V5.48H121.124V16H123.124V0.999999H121.124V1.68Z" fill="#04121B" fill-opacity="0.48"/>
</svg>
