<svg width="261" height="40" viewBox="0 0 261 40" fill="none" xmlns="http://www.w3.org/2000/svg">
<rect x="146" width="115" height="40" rx="20" fill="white"/>
<path d="M163.8 26.2C166.7 26.2 168.86 24.06 168.86 21C168.86 17.94 166.7 15.8 163.8 15.8C160.9 15.8 158.74 17.94 158.74 21C158.74 24.06 160.9 26.2 163.8 26.2ZM163.8 24.36C162.06 24.36 160.74 23.02 160.74 21C160.74 18.98 162.06 17.64 163.8 17.64C165.54 17.64 166.86 18.98 166.86 21C166.86 23.02 165.54 24.36 163.8 24.36ZM174.78 26V17.84H178.02V16H169.54V17.84H172.78V26H174.78ZM183.989 14.48C183.989 16.48 185.089 17.66 186.449 18.6L188.029 19.7C189.049 20.4 189.809 21.2 189.809 22.44C189.809 23.64 189.029 24.36 187.789 24.36C186.569 24.36 185.769 23.48 185.769 22.06V21.08H183.769V22.2C183.769 24.78 185.569 26.2 187.789 26.2C190.009 26.2 191.809 24.88 191.809 22.2C191.809 20.26 190.709 19.12 189.369 18.18L187.749 17.02C186.769 16.36 185.989 15.66 185.989 14.48C185.989 13.28 186.709 12.64 187.769 12.64C188.889 12.64 189.589 13.32 189.589 14.86V15.72H191.589V14.8C191.589 12.1 189.909 10.8 187.769 10.8C185.689 10.8 183.989 11.86 183.989 14.48ZM196.026 11H194.026V26H196.026V20.74L200.806 26H203.346L198.286 20.56L202.986 16H200.326L196.026 20.44V11ZM209.374 27.12L213.314 16H211.314L208.434 24.38L205.534 16H203.534L207.494 27.1C206.854 28.66 206.174 29.4 204.914 29.4C204.434 29.4 203.974 29.3 203.594 29.18V30.94C203.974 31.06 204.534 31.16 205.094 31.16C207.554 31.16 208.534 29.5 209.374 27.12ZM223.924 21.68C223.944 21.46 223.964 21.24 223.964 21C223.964 17.94 221.884 15.8 219.044 15.8C216.204 15.8 214.124 17.94 214.124 21C214.124 24.06 216.204 26.2 219.044 26.2C221.344 26.2 223.084 25.06 223.704 23H221.544C221.144 23.9 220.344 24.44 219.124 24.44C217.444 24.44 216.324 23.42 216.084 21.68H223.924ZM219.044 17.56C220.644 17.56 221.744 18.56 221.984 20.24L216.104 20.24C216.344 18.56 217.424 17.56 219.044 17.56ZM232.982 20.54V26H234.982V20.14C234.982 17.2 233.362 15.8 231.182 15.8C229.862 15.8 228.762 16.42 228.142 17.58V16H226.142V26H228.142V20.54C228.142 18.56 229.062 17.56 230.562 17.56C232.062 17.56 232.982 18.56 232.982 20.54ZM241.851 26.2C243.191 26.2 244.351 25.56 245.131 24.5V26.08C245.131 28 244.051 29.36 242.211 29.36C240.651 29.36 239.571 28.38 239.311 26.88H237.291C237.651 29.46 239.591 31.2 242.211 31.2C244.951 31.2 247.131 29.12 247.131 26.08V16H245.131V17.5C244.351 16.44 243.191 15.8 241.851 15.8C239.111 15.8 237.051 17.94 237.051 21C237.051 24.06 239.111 26.2 241.851 26.2ZM242.091 24.36C240.351 24.36 239.051 23.02 239.051 21C239.051 18.98 240.351 17.64 242.091 17.64C243.831 17.64 245.131 18.98 245.131 21C245.131 23.02 243.831 24.36 242.091 24.36Z" fill="#04121B" fill-opacity="0.48"/>
<path d="M3.52174 30.5785C1.47226 31.7623 0 30.7758 0 29.0211C0 27.1531 0 21.5482 0 21.5482C0 21.5482 0 15.9432 0 14.0752C0 12.3205 1.47135 11.334 3.52174 12.5178C6.71377 14.3612 16.2889 19.893 16.2889 19.893C17.5621 20.6283 17.5621 22.4671 16.2889 23.2024C16.2889 23.2033 6.71377 28.7351 3.52174 30.5785Z" fill="#00C1FF"/>
<path d="M14.0609 30.578C12.0114 31.7618 10.5392 30.7753 10.5392 29.0206C10.5392 27.1526 10.5392 21.5477 10.5392 21.5477C10.5392 21.5477 10.5392 15.9428 10.5392 14.0748C10.5392 12.32 12.0105 11.3335 14.0609 12.5173C17.1826 14.3205 26.5477 19.7308 26.5477 19.7308C27.946 20.5383 27.946 22.557 26.5477 23.3645C26.5468 23.3645 17.1826 28.7749 14.0609 30.578Z" fill="#BCEC30"/>
<mask id="mask0_1_14648" style="mask-type:alpha" maskUnits="userSpaceOnUse" x="10" y="12" width="18" height="20">
<path d="M14.0609 30.578C12.0114 31.7618 10.5392 30.7753 10.5392 29.0206C10.5392 27.1526 10.5392 21.5477 10.5392 21.5477C10.5392 21.5477 10.5392 15.9428 10.5392 14.0748C10.5392 12.32 12.0105 11.3335 14.0609 12.5173C17.1826 14.3205 26.5478 19.7308 26.5478 19.7308C27.946 20.5383 27.946 22.557 26.5478 23.3645C26.5468 23.3645 17.1826 28.7749 14.0609 30.578Z" fill="#6FE4FF"/>
</mask>
<g mask="url(#mask0_1_14648)">
<g filter="url(#filter0_f_1_14648)">
<path d="M3.52222 30.579C1.47275 31.7628 0.000488281 30.7763 0.000488281 29.0215C0.000488281 27.1535 0.000488281 21.5486 0.000488281 21.5486C0.000488281 21.5486 0.000488281 15.9437 0.000488281 14.0757C0.000488281 12.321 1.47184 11.3345 3.52222 12.5183C6.71426 14.3616 16.2894 19.8935 16.2894 19.8935C17.5626 20.6288 17.5626 22.4676 16.2894 23.2029C16.2894 23.2038 6.71426 28.7356 3.52222 30.579Z" fill="#99D100"/>
</g>
</g>
<path d="M34.4464 24.8836L34.8034 24.0706C35.0469 23.5178 35.485 23.3714 36.0368 23.7779C37.0917 24.5584 38.8282 25.1275 41.1488 25.1275C43.1287 25.1275 43.9726 24.6234 43.9726 24.0218C43.9726 23.3389 43.2748 23.1601 42.1226 23.0137L39.4935 22.6723C36.3289 22.2495 34.7385 21.1113 34.7385 19.1277C34.7385 16.9976 36.475 15.3066 40.4997 15.3066C42.7393 15.3066 44.1836 15.6481 45.1249 16.0058C46.1635 16.4123 46.3096 16.7538 46.3096 17.5993V18.7049C46.3096 19.3878 46.0661 19.6155 45.4008 19.6155H44.6542C43.9726 19.6155 43.7454 19.3716 43.7454 18.7049V18.3472C43.3073 18.2009 42.2199 17.9895 40.9541 17.9895C38.7308 17.9895 37.6597 18.396 37.6597 19.0789C37.6597 19.5829 38.3088 19.8756 39.4935 20.0382L42.0739 20.3797C45.1898 20.7699 46.8451 21.7129 46.8451 23.9893C46.8451 26.2982 44.6542 27.7778 40.7431 27.7778C37.8707 27.7778 35.5662 26.8673 34.6412 26.0218C34.3166 25.6966 34.2679 25.2901 34.4464 24.8836Z" fill="black"/>
<path d="M62.9427 27.5818H61.6119C60.9628 27.5818 60.7518 27.4843 60.4272 26.9965L57.928 23.3055C57.571 22.8015 57.2951 22.6714 56.5486 22.6714H54.0494V26.6713C54.0494 27.3542 53.806 27.5818 53.1406 27.5818H52.1831C51.5015 27.5818 51.2743 27.3379 51.2743 26.6713V14.6717H50.3817C49.7001 14.6717 49.4729 14.4278 49.4729 13.7611V12.9481C49.4729 12.2652 49.7163 12.0376 50.3817 12.0376H53.1568C53.8384 12.0376 54.0656 12.2815 54.0656 12.9481V19.9723H56.3052C57.0517 19.9723 57.3113 19.8585 57.6846 19.3382L59.7781 16.1025C60.1189 15.5985 60.3299 15.5009 60.979 15.5009H62.3098C63.0401 15.5009 63.1699 16.0863 62.7642 16.6879L60.4272 20.2325C60.1838 20.5739 59.8917 20.9316 59.6158 21.2243C59.9079 21.4682 60.3136 21.8747 60.4759 22.1186L63.3971 26.4274C63.8028 26.9965 63.6568 27.5818 62.9427 27.5818Z" fill="black"/>
<path d="M67.6916 29.7926V28.9959C67.6916 28.313 67.935 28.0853 68.6004 28.0853H69.7526C70.4504 28.0853 70.7912 27.939 71.0509 27.3862L71.1969 27.0772L65.6792 16.6223C65.3384 15.9881 65.6143 15.5166 66.3283 15.5166H67.578C68.2271 15.5166 68.5192 15.6304 68.7626 16.1019L71.0671 20.8498C71.6027 21.9392 72.2031 23.1912 72.6738 24.2806C73.1606 23.2237 73.7124 22.0042 74.2317 20.9473L76.5849 16.1019C76.7958 15.6467 77.1204 15.5166 77.7696 15.5166H79.0192C79.7495 15.5166 80.0091 16.0044 79.6683 16.6223L73.3878 28.5731C72.6575 29.9552 71.8299 30.7194 69.9473 30.7194H68.5679C67.9188 30.7194 67.6916 30.4755 67.6916 29.7926Z" fill="black"/>
<path d="M96.6386 21.5504C96.6386 25.3876 93.7986 27.7778 89.9686 27.7778C88.3133 27.7778 87.0474 27.3713 86.1549 26.8673V30.1517C86.1549 30.8346 85.9114 31.0623 85.246 31.0623H84.2886C83.607 31.0623 83.3798 30.8184 83.3798 30.1517V18.1521H82.4872C81.8056 18.1521 81.5784 17.9082 81.5784 17.2415V16.4286C81.5784 15.7457 81.8218 15.518 82.4872 15.518H84.8241C85.5057 15.518 85.7329 15.7619 85.7329 16.4286V16.4936C86.6417 15.892 88.0211 15.3066 89.9686 15.3066C93.7986 15.3229 96.6386 17.7131 96.6386 21.5504ZM93.7499 21.5504C93.7499 19.3065 91.9485 18.0545 89.7089 18.0545C88.1023 18.0545 86.7878 18.7374 86.1711 19.2903V23.8267C86.804 24.3795 88.1023 25.0624 89.7089 25.0624C91.9485 25.0462 93.7499 23.7942 93.7499 21.5504Z" fill="black"/>
<path d="M111.758 20.6067C111.758 21.2896 111.514 21.5172 110.849 21.5172H109.892C109.21 21.5172 108.983 21.3221 108.983 20.6067C108.983 18.8181 108.301 18.0214 106.678 18.0214C105.137 18.0214 103.855 18.9807 103.14 20.1514V26.6715C103.14 27.3544 102.897 27.582 102.232 27.582H101.274C100.593 27.582 100.365 27.3382 100.365 26.6715V18.1514H99.4728C98.7912 18.1514 98.564 17.9076 98.564 17.2409V16.4279C98.564 15.745 98.8074 15.5174 99.4728 15.5174H101.81C102.491 15.5174 102.719 15.7613 102.719 16.4279V17.2084C103.579 16.2491 104.893 15.3223 107.133 15.3223C110.411 15.3223 111.758 17.2734 111.758 20.6067Z" fill="black"/>
<path d="M113.48 21.5497C113.48 17.9726 116.499 15.3223 120.507 15.3223C124.483 15.3223 127.486 17.9726 127.486 21.5497C127.486 25.1431 124.467 27.7934 120.507 27.7934C116.499 27.7934 113.48 25.1431 113.48 21.5497ZM124.727 21.5497C124.727 19.4685 122.893 17.9563 120.507 17.9563C118.073 17.9563 116.239 19.4847 116.239 21.5497C116.239 23.6472 118.073 25.1756 120.507 25.1756C122.909 25.1756 124.727 23.6472 124.727 21.5497Z" fill="black"/>
<defs>
<filter id="filter0_f_1_14648" x="-1.46075" y="10.5397" width="20.1663" height="22.0177" filterUnits="userSpaceOnUse" color-interpolation-filters="sRGB">
<feFlood flood-opacity="0" result="BackgroundImageFix"/>
<feBlend mode="normal" in="SourceGraphic" in2="BackgroundImageFix" result="shape"/>
<feGaussianBlur stdDeviation="0.730621" result="effect1_foregroundBlur_1_14648"/>
</filter>
</defs>
</svg>
